<?xml version="1.0" encoding="utf-8"?>
<svg version="1.1" id="Layer_1" xmlns="http://www.w3.org/2000/svg" xmlns:xlink="http://www.w3.org/1999/xlink" x="0px" y="0px"
	 viewBox="0 0 2608 942.048" enable-background="new 0 0 2608 942.048" xml:space="preserve">
<path d="M57.134,42.058h128.262c0.118,0.742,0.246,1.484,0.369,2.227c1.5,0.967,2.933,2.037,4.167,3.332
	c-1.06,1.418-2.39,2.662-3.225,4.238c-0.502,2.452,2.273,3.614,3.327,5.457c-4.015,3.176-3.195,2.526-3.665,5.661
	c1.039,0.809,2.058,1.643,3.071,2.493c-0.993,1.321-2.257,2.483-2.974,3.988c-0.625,6.286-0.096,17.766-1.213,20.982
	c-3.769,4.512-13.891,1.486-24.893,24.145c-5.724,10.407,1.396,41.317-4.33,48.526c-0.374,2.135-0.251,4.341-0.814,6.445
	c0.083,2.525-1.689,35.285-2.442,37.859c0.936,4.014,0.689,15.551,1.577,18.469c-3.843,8.327-1.421,7.685-1.116,16.856
	c-2.706,6.79,1.211,13.415-3.133,14.046c0.062,0.427,1.418,32.984,1.223,34.46c-0.404-0.01-1.218-0.036-1.628-0.046
	c-0.124,1-1.01,11.621-0.783,13.022c4.412,2.15,8.456,5.037,13.048,6.818c-0.005-1.356,0.276-2.687,1.06-3.819
	c0.384,0.819,0.983,1.633,0.896,2.59c0,0.002-0.307,18.264-0.307,18.264c-1.208,1.039-1.188,2.657-1.275,4.116
	c-8.834,3.923-6.512-0.158-15.853,8.098c0.238,0.63-6.278,103.419-6.404,105.375c4.407,1.505,8.912,2.744,13.227,4.505
	c0.512-0.23,1.024-0.456,1.536-0.676c-0.102-0.409-0.312-1.223-0.42-1.628c0.43-0.471,0.624-1.269,1.295-1.438
	c1.795,2.363,0.316,21.635,0.143,22.635c-1.679,0.681-1.28,2.59-1.372,4.034c-6.337,1.771-12.797,4.525-16.877,9.925
	c-0.635,1.346-0.42,2.913-0.558,4.366c2.216-0.113,4.428,0.087,6.644,0.2c0.125,0.419,2.486,15.53,2.595,16.109
	c-0.859,2.262-3.601,48.326-3.215,50.164c0.353-0.143,1.06-0.435,1.413-0.578c0.558-2.047,1.843-3.752,3.066-5.436
	c1.014,1.935,1.904,3.926,2.856,5.892c0.834-0.947,0.85-2.263,0.855-3.45c-1.054-1.566-2.38-2.938-3.819-4.156
	c-0.322-2.165-1.234-4.141-2.15-6.096c-0.614-2.083,2.677-2.887,2.129-4.965c-3.106-32.298,17.281-55.347,35.417-60.161
	c1.669-0.476,1.464-2.933,3.158-3.43c2.421-1.387,5.769-0.276,7.796-2.401c0.906-0.655,0.23-1.786,0.266-2.677
	c-0.338-1.106,0.578-1.904,1.126-2.733c-0.031-1.459-0.282-2.902-0.343-4.351c0.338-1.024,0.824-1.991,1.223-2.984
	c-1.55-3.95,0.022-1.865,1.418-9.019c0.312,2.319,1.203,4.52,1.582,6.818c-0.322,2.611,0.558,5.206-0.026,7.791
	c-0.425,1.863,1.06,3.517,0.64,5.4c-0.899,4.736,7,1.66,9.598,7.571c39.497,19.293,29.051,63.195,29.105,64.195
	c0.563,1.367,1.653,2.498,1.899,4.028c-1.628,1.244-2.053,3.23-2.585,5.093c-0.973,1.571-2.544,2.672-3.916,3.885
	c-0.527,3.378-0.2,6.813-0.399,10.217c0.845,0.266,1.689,0.543,2.539,0.829c-1.555-4.178-3.126-5.34,0.297-7.335
	c0.824-1.786,1.761-3.522,2.872-5.144c5.476,10.79,4.742,5.194,2.252,12.664c1.147,1.157,1.351,2.826,2.048,4.243
	c0.778-1.341,1.029-2.995,2.263-4.039c-1.687-5.772-2.573-5.019,0.404-7.366c0.773-1.802,1.72-3.527,2.897-5.098
	c0.85,1.73,1.648,3.486,2.385,5.267c2.591,2.355,2.085,1.31-0.292,7.279c0.374,0.358,0.742,0.722,1.116,1.09
	c0.138,1.06,0.522,2.063,1.131,2.948c0.266-0.358,0.799-1.085,1.065-1.449c-0.031-0.348-0.102-1.049-0.133-1.397
	c0.328-0.164,0.983-0.481,1.31-0.645c-0.425-1.74-1.162-3.378-1.561-5.119c-0.22-1.464,1.418-1.986,2.042-3.046
	c0.86-1.592,1.658-3.22,2.687-4.714c0.921,1.73,1.802,3.491,2.467,5.349c1.6,1.427,2.457,1.005,0.594,5.083
	c0.891,0.077,1.786,0.174,2.682,0.281c-1.072-3.848-1.222-3.109,1.131-5.308c0.778-1.725,1.679-3.389,2.626-5.022
	c1.111,1.423,1.751,3.112,2.426,4.771c0.415,1.029,1.746,1.464,1.935,2.621c-0.276,1.776-1.259,3.337-1.879,5.011
	c0.532,0.732,1.024,1.5,1.459,2.303c0.328,0,0.993-0.005,1.326-0.005c0.486-0.758,1.003-1.479,1.536-2.196
	c-1.867-4.995-2.6-5.111,0.225-7.11c0.686-1.822,1.658-3.522,2.82-5.078c0.88,1.679,1.72,3.389,2.309,5.201
	c3.669,2.506,0.819,3.442,0.164,6.977c0.394,0.952,0.87,1.884,1.147,2.892c0.425,0.389,0.86,0.783,1.295,1.188
	c0.184-0.845,0.358-1.684,0.532-2.518c0.394-0.343,0.788-0.676,1.182-1.008c-0.507-1.607-1.106-3.184-1.848-4.689
	c0.41-1.152,1.167-2.078,2.155-2.769c0.758-1.735,1.653-3.409,2.733-4.96c0.855,1.679,1.699,3.373,2.365,5.139
	c0.599,0.553,1.203,1.106,1.817,1.658c-0.246,1.976-1.136,3.767-1.863,5.595c0.235,0.282,0.701,0.845,0.932,1.126
	c0.164,1.085,0.379,2.257,1.515,2.749c0.287-0.87,0.558-1.74,0.824-2.611c0.317-0.399,0.645-0.799,0.973-1.188
	c-2.058-5.6-2.239-4.831,0.292-7.192c0.814-1.705,1.679-3.378,2.595-5.022c1.06,1.653,1.945,3.419,2.498,5.313
	c0.875,0.66,1.612,1.474,2.211,2.401c2.145-2.063,3.332-4.781,4.73-7.351c0.952,1.438,1.571,3.061,2.385,4.581
	c2.32,4.025,2.887,0.529,0.097,7.74c0.363,0.358,0.727,0.727,1.095,1.101c0.235,0.891,0.118,2.273,1.244,2.59
	c0.471-0.706,0.614-1.561,0.875-2.344c2.809-2.425-3.208-4.21,1.136-8.318c0.783-1.72,1.684-3.378,2.693-4.975
	c0.973,1.623,1.802,3.332,2.442,5.119c0.87,0.737,1.715,1.515,2.539,2.309c0.246-0.952,0.993-1.551,1.699-2.14
	c0.819-1.73,1.638-3.455,2.554-5.129c1.684,2.022,1.74,5.119,4.105,6.562c0.23-0.855,0.466-1.705,0.696-2.549
	c-1.08-1.525-2.518-2.744-3.66-4.197c-3.199-7.465-2.806-5.781-0.43-8.871c-5.197-27.279,9.199-51.67,29.945-60.161
	c1.534-5.944,4.855-1.473,9.49-6.465c-1.029-1.469-0.553-3.143,0.558-4.402c0.077-1.899-1.198-3.962,0.246-5.6
	c-0.041-1.699-0.522-3.455,0.179-5.083c1.131-2.938,0.834-6.127,1.443-9.163c0.061,3.773-0.015,7.627,1.449,11.19
	c-1.525,2.237,1.106,4.566-0.225,6.808c-0.01,0.676-0.015,1.362-0.01,2.053c1.014,1.244,1.275,2.785,0.584,4.264
	c4.097,3.868,4.662,1.66,7.704,3.512c1.101,0.921,1.725,2.39,3.153,2.913c16.38,7.644,31.066,32.09,27.196,57.73
	c0.717,0.742,1.745,1.336,2.14,2.309c-1.641,8.771-6.563,8.539-5.677,12.444c0.717-1.07,1.295-2.227,2.063-3.256
	c1,0.021,1.457,1.11,3.061,4.863c4.194,3.539-1.734,5.906,1.116,8.164c0.276,0.891,0.64,1.761,1.397,2.375
	c0.225-0.819,0.45-1.628,0.66-2.436c0.225-0.21,0.665-0.635,0.891-0.845c-0.85-2.257-3.061-5.467-0.138-7.146
	c0.635-1.786,1.474-3.486,2.467-5.098c0.932,1.628,1.674,3.358,2.508,5.042c0.962,1.182,3.035,1.505,3.297,3.22
	c-0.374,1.699-1.106,3.291-1.592,4.96c0.379,0.271,0.763,0.548,1.157,0.834c0.148,0.742-0.092,2.923,1.106,2.222
	c0.43-1.055,0.778-2.145,1.397-3.107c-1.815-5.446-2.454-4.256,0-6.9c0.671-1.797,1.51-3.522,2.457-5.19
	c0.937,1.699,1.781,3.455,2.488,5.267c0.635,0.527,1.418,0.983,1.582,1.889c0.363-0.021,0.732-0.036,1.106-0.046
	c0.394-0.573,0.819-1.111,1.254-1.643c0.706-1.72,1.479-3.409,2.38-5.027c1.111,1.705,2.053,3.527,2.708,5.462
	c4.274,3.526-1.465,5.426,1.014,7.98c0.067-0.891,0.123-1.776,0.292-2.641c0.609,0.246,1.198,0.537,1.792,0.845
	c-0.246,0.307-0.737,0.932-0.978,1.239c-0.041,0.962-0.087,1.925-0.123,2.902l0.66,0.015c0.092-0.696,0.2-1.387,0.312-2.068
	c1.761-1.413-0.287-3.389-0.522-5.042c-0.594-1.566,1.157-2.339,1.684-3.568c0.655-1.556,1.31-3.112,2.206-4.54
	c0.921,1.679,1.756,3.404,2.483,5.18c1.977,1.9,1.935,1.13,1.049,4.638c1.838,0.2,2.094,1.981,2.094,3.511
	c0.194-0.261,0.589-0.783,0.788-1.044c-0.63-1.531-1.505-2.984-1.843-4.612c0.169-1.121,1.346-1.746,1.786-2.759
	c0.686-1.531,1.346-3.082,2.278-4.489c1.546,2.232,2.037,5.088,4.039,7.003c0.655,0.788,0.082,1.976,0.276,2.907
	c0.512-0.788,0.671-1.72,0.783-2.631c0.461-0.425,0.942-0.834,1.418-1.239c0.594-1.74,1.203-3.517,2.334-4.996
	c1.111,1.531,1.786,3.307,2.585,5.011c1.561,0.834,1.633,2.467,1.49,4.049c0.205,0.154,0.619,0.461,0.824,0.614
	c-0.164-1.546-0.476-3.337,1.121-4.254c0.65-1.817,1.459-3.583,2.554-5.175c0.967,1.638,1.833,3.348,2.406,5.18
	c1.239,0.732,2.81,1.28,3.261,2.82c0.143-0.01,0.435-0.031,0.578-0.041c0.317-0.671,0.773-1.249,1.259-1.797
	c0.701-1.52,1.27-3.112,2.227-4.494c0.323-0.046,0.967-0.138,1.29-0.184c0.957,1.438,1.536,3.087,2.186,4.684
	c0.783,0.645,1.433,1.428,1.909,2.344c2.007-1.955,2.708-4.709,4.039-7.09c-0.537-1.198-1.182-2.355-1.546-3.614
	c-0.558-1.674,2.007-2.426,1.515-4.085c-3.204-15.121,0.686-31.726,10.816-43.484c1.612-0.379,2.529-1.838,3.675-2.892
	c4.013-4.06,11.237-8.445,14.901-10.289c-0.041-0.409-0.118-1.228-0.159-1.638c2.037-1.536,4.592-1.735,7.003-2.232
	c1.167-0.189,1.648-1.423,2.329-2.237c-1.116-1.433-0.415-3.01,0.471-4.331c-0.189-1.157-0.645-2.303-0.543-3.481
	c0.297-1.111,0.865-2.206,0.568-3.378c-0.763-2.866,1.553-4.63,1.167-10.801c0.077-0.02,0.225-0.067,0.302-0.087
	c-0.282,2.672,0.01,5.365,0.891,7.909c0.727,1.689-0.287,3.558,0.507,5.231c0.655,1.316-0.031,2.728-0.077,4.1
	c0.169,1.054,0.768,1.981,1.182,2.964c-0.522,1.29-0.604,2.994,0.676,3.885c2.175,0.625,4.627,0.445,6.613,1.71
	c9.148,10.145,37.245,20.532,30.58,58.498c1.57,2.019,3.125,1.489-0.389,8.451c-1.044,1.136-2.201,2.17-3.194,3.363
	c0.133,1.925,0.21,3.854,0.276,5.789c0.271,0.578,0.548,1.162,0.829,1.751c0.522-0.553,1.06-1.095,1.602-1.633
	c0.553-1.74,1.372-3.384,2.288-4.96c0.906,1.592,1.73,3.25,2.237,5.027c0.532,0.23,1.08,0.461,1.628,0.701
	c0.317,1.955-0.394,3.829-1.08,5.626c0.297,0.43,0.599,0.865,0.906,1.31c0.148,0.747,0.323,1.52,0.558,2.262
	c0.476-0.548,0.532-1.285,0.706-1.945c0.292-0.394,0.594-0.783,0.901-1.162c-0.635-1.525-1.326-3.051-1.592-4.684
	c0.425-0.681,1.101-1.136,1.689-1.664c0.573-1.751,1.331-3.44,2.283-5.022c0.886,1.612,1.648,3.291,2.314,5.006
	c0.522,0.655,1.029,1.31,1.541,1.991c0.476-0.507,0.967-1.003,1.469-1.495c0.537-1.761,1.29-3.455,2.339-4.97
	c0.819,1.612,1.541,3.281,2.165,4.986c0.537,0.65,1.075,1.31,1.607,1.981c0.497-0.502,1.008-0.998,1.525-1.484
	c0.461-1.74,1.141-3.43,2.232-4.868c1.28,1.925,1.469,4.494,3.322,6.02c1.623,1.612-0.21,3.875-0.568,5.692
	c0.271,0.317,0.548,0.645,0.834,0.978c0.22,0.804,0.481,1.623,0.783,2.416c0.328-1.269,0.676-2.534,1.141-3.752
	c-0.445-1.326-1.177-2.626-1.126-4.049c0.276-0.681,0.845-1.188,1.295-1.751c0.461-1.674,1.213-3.24,2.16-4.689
	c0.947,1.536,1.653,3.209,2.268,4.914c0.584,0.584,1.147,1.193,1.699,1.827c0.445-0.41,0.901-0.814,1.362-1.208
	c0.522-1.751,1.213-3.46,2.329-4.919c1.203,2.252,1.786,4.853,3.583,6.757c0.425-0.445,0.86-0.88,1.305-1.315
	c0.63-1.766,1.106-3.803,2.79-4.894c1.116,2.309,1.925,4.807,3.645,6.767c1.858-1.848,1.868-4.812,3.972-6.48
	c1.136,2.211,1.786,4.704,3.491,6.593c0.66-0.415,1.336-0.804,2.022-1.188c1.226-5.396-0.186-3.459-1.039-7.75
	c0.154-0.978,1.024-1.607,1.582-2.36c-6.323-27.314,12.993-48.253,23.587-50.63c0.604-0.665,1.208-1.331,1.812-2.001
	c0.549-1.536-0.236-3.135,8.431-3.471c-0.215-0.179-0.64-0.543-0.855-0.727c0.379-0.517,0.768-1.029,1.162-1.536
	c-1.254-2.078,1.034-4.049,0.23-6.163c-0.353-0.875-0.051-1.73,0.358-2.518c-0.63-3.041,0.517-5.922,1.152-8.85
	c0.184,2.769,1.899,5.293,1.157,8.108c0.609,1.776,0.425,3.639,0.256,5.477c0.911,1.101,1.28,2.437,0.64,3.788
	c0.399,0.737,0.793,1.505,0.937,2.355c2.222,0.169,4.52,0.174,6.634,0.988c1.213,1.116,1.833,2.892,3.46,3.578
	c17.425,8.284,28.784,27.862,24.632,50.354c0.553,0.691,1.193,1.346,1.618,2.145c-0.333,1.653-1.101,3.199-1.705,4.776
	c-0.809,1.833-3.619,2.851-3.061,5.139c0.573,2.222,1.208,4.592,2.943,6.219c1.29-1.607,1.735-3.655,2.692-5.441
	c0.123,0.051,0.379,0.154,0.507,0.2c0.967,1.884,1.597,3.947,2.841,5.692c2.785-0.522,1.94-4.115,3.977-5.334
	c0.978,1.879,1.479,3.982,2.718,5.738c0.435-0.266,0.875-0.522,1.326-0.768c0.353-1.669,0.942-3.281,1.879-4.709
	c1.223,2.073,1.628,4.627,3.512,6.286c1.198-1.812,1.203-4.31,3.092-5.636c0.747,1.423,1.367,2.913,1.863,4.453
	c0.665,0.573,1.336,1.152,2.012,1.735c0.998-1.633,1.413-3.532,2.355-5.19c0.865,0.128,0.942,1.131,1.29,1.781
	c0.502,1.484,1.172,2.907,2.191,4.121c1.351-1.551,1.52-3.716,2.652-5.395c1.57-0.043,1.431,3.145,3.435,5.784
	c0.389-0.261,0.783-0.512,1.193-0.758c0.276-1.602,0.87-3.112,1.628-4.54c1.305,1.147,1.669,2.897,2.155,4.489
	c0.44,0.558,0.87,1.101,1.331,1.674c1.213-0.691,1.372-2.104,0.113-2.831c-0.768-1.566-1.633-3.102-2.124-4.776
	c0.481-0.696,1.07-1.305,1.643-1.925c-3.271-13.083-0.316-31.748,16.805-42.261c-0.015-1.781,1.612-2.8,2.728-3.936
	c1.976-0.374,2.826-2.355,4.31-3.46c1.438-0.635,3.041-0.701,4.581-0.957c0.619-0.763,1.259-1.51,1.92-2.242
	c-0.466-1.28-0.363-2.585,0.42-3.716c-0.486-4.182,0.102-8.426,1.034-12.51c0.415,2.191,1.52,4.325,1.275,6.603
	c-0.082,1.372,0.599,2.693,0.323,4.08c-0.302,1.945,1.177,3.701,0.532,5.672c0.686,0.66,1.28,1.515,2.196,1.894
	c1.612,0.384,3.517,0.051,4.847,1.259c0.036,0.404,0.113,1.213,0.154,1.623c14.571,5.02,28.25,22.09,25.302,45.291
	c-0.369,1.423,0.604,2.549,1.377,3.614c-0.671,1.602-1.29,3.225-1.812,4.883c-0.461,0.261-0.906,0.522-1.346,0.788
	c-0.507,1.085-0.921,2.211-1.198,3.378c0.788,0.834,1.525,1.725,2.186,2.682c-0.297,1.408,0.609,2.268,1.868,2.631
	c0.297-1.597,0.891-3.112,1.858-4.423c1.356,1.198,1.433,3.65,3.368,4.11c0.497-1.269,1.08-2.498,1.792-3.655
	c0.967,1.095,1.397,2.503,1.761,3.901c1.786-0.297,2.851-1.71,3.742-3.153c0.937,1.147,1.879,2.416,3.399,2.826
	c0.456-0.788,0.932-1.561,1.413-2.329c0.45,0.369,0.901,0.742,1.367,1.126c0.621,1.498-0.473,2.454,2.37,2.135
	c0.005-0.41,0.015-1.234,0.021-1.643c0.502-0.322,1.034-0.624,1.561-0.932c0.358,1.152,0.788,2.293,1.295,3.399
	c0.384,0.01,1.157,0.026,1.546,0.036c0.415-1.315,0.742-2.698,0.261-4.039c0.323-0.814,0.64-1.628,0.962-2.442
	c-0.486-1.669-2.21-13.505,2.943-24.396c5.71-15.402,23.659-20.845,25.497-23.229c-0.333-1.566,0-3.133,0.256-4.673
	c-0.169-1.73,0.348-3.476-0.097-5.18c0.425-1.592,0.809-3.189,1.152-4.796c0.537,2.068,1.71,4.151,1.136,6.342
	c0.686,1.92-0.072,3.988,0.712,5.892c0.046,1.638,0.543,3.163,1.833,4.249c1.904,0.097,4.668,0.077,4.986,2.534
	c9.691,3.391,18.716,12.348,22.405,29.095c1.034,6.57-0.223,11.051-0.276,12.592c0.343,0.85,0.901,1.612,1.188,2.508
	c-0.358,1.454-0.983,2.826-1.49,4.238c-0.256,0.128-0.768,0.394-1.024,0.527c-0.476,0.676-0.993,1.331-1.357,2.078
	c0.031,0.681,0.271,1.341,0.44,2.022c1.382,0.522,2.094,1.853,2.943,2.974c0.507-1.208,1.177-2.365,2.365-3.02
	c0.527,1.259,0.481,3.03,1.935,3.665c0.394-0.957,0.778-1.914,1.29-2.81c1.571,0.583,1.694,2.728,2.657,3.987
	c0.404-1.336,0.86-2.651,1.423-3.921c1.024,1.111,1.106,2.933,2.447,3.747c1.147-0.107,1.316-1.602,1.909-2.39
	c1.029-0.855,2.206-1.648,2.831-2.877c-4.683-32.132,19.338-39.337,24.36-43.72c0.363-2.995,0.614-6.02,0.399-9.035
	c0.374-1.249,0.727-2.503,1.101-3.747c1.818,5.023,0.711,12.695,3.107,14.143c1.326,0.65,2.815,0.886,4.233,1.316
	c0.133,0.502,0.271,1.008,0.425,1.525c8.85,3.901,15.745,11.789,18.668,20.987c1.172,3.133,1.336,6.506,1.853,9.787
	c0.394,3.081-1.914,6.506,0.292,9.27c-0.164,1.326-0.558,2.606-1.07,3.839c-0.512,0.2-1.008,0.41-1.49,0.625
	c-0.266,1.244-0.476,2.498-0.635,3.767c1.116,1.147,2.764,2.467,4.315,1.188c0.834,1.234,2.083,0.84,3.194,0.205
	c0.292,0.241,0.875,0.712,1.167,0.947c3.458-4.213-3.927-20.74,10.923-33.451c-0.052-0.584-2.58-109.337-2.508-112.209
	c-0.548-0.2-1.09-0.399-1.617-0.589c-0.005-0.65,0-1.3,0.015-1.94c2.027-0.059,2.297-1.077,7.499-8.712
	c-0.235-0.65-0.44-1.29-0.635-1.935c0.522-0.799,1.101-1.577,1.464-2.462c-0.328-1.065-0.947-2.007-1.397-3.01
	c0.814-0.747,1.484-1.633,2.078-2.565c-0.343-0.333-0.671-0.655-0.988-0.978c0.266-0.476,0.543-0.947,0.839-1.408
	c-0.266-1.602-0.998-3.02-2.042-4.233c-0.01-1.126,0.988-1.92,1.372-2.923c0.103-1,0.335-8.043-0.456-9.245
	c1.003-1.817,0.727-4.223,0.195-6.168c0.455-0.837,0.287-3.658,0.287-18.033c-0.758-0.839-1.5-1.689-2.273-2.493
	c0.655-1.331,1.305-2.667,1.858-4.044c-0.66-0.619-1.305-1.239-1.945-1.858c0.809-1.863,1.889-3.583,2.815-5.39
	c-0.266-0.148-0.804-0.445-1.07-0.599c0.752-1.925,0.834-4.029,0.297-6.025l-0.911,0.87c-0.089-1.129-0.051-1.581-0.189-2.216
	c0.389,0.404,0.788,0.819,1.198,1.234c0.077-0.957,0.179-1.899,0.282-2.846c-0.154-0.261-0.461-0.783-0.614-1.044
	c-0.026-0.988,0.046-1.986-0.097-2.964c-5.797-10.724-6.695-17.082-15.93-23.48c2.371-3.326,0.443-4.31,1.008-11.753
	c0.302-0.02,0.896-0.051,1.193-0.067c0.947-1.72,1.095-3.716,1.31-5.626c0.686,0.01,1.367,0.02,2.073,0.036
	c1.218-1.976,1.254-4.315,1.827-6.491c0.328,0.896,0.64,1.833,1.275,2.585c0.056-0.783,0.113-1.566,0.164-2.344
	c1.326-0.635,2.549-0.195,3.46,0.901c2.14-0.747,4.305-1.433,6.511-1.991c0.143-0.916,0.282-1.833,0.491-2.733
	c0.353,0.829,0.671,1.679,0.952,2.549c-0.327-1.011,1.082-4.897,1.124-6.259c0.081-2.592-0.248-5.158-0.451-7.735
	c-1.261-16.06,1.211-32.21-1.063-48.225c-0.516-3.636-5.561-10.258-5.67-9.818c-3.014-3.144-5.255-9.143-2.198-12.982
	c0.737-2.544-0.353-5.359,0.845-7.755c0.138,0.42,0.415,1.264,0.553,1.684c0.696-0.993,1.408-1.976,2.124-2.964
	c0.118-1.121,0.271-2.247,0.486-3.358c0.384,0.604,0.706,1.223,1.044,1.863c1.648-1.008,3.378-1.884,4.991-2.964
	c0.046-0.839,0.097-1.705,0.497-2.467c0.302,0.691,0.609,1.387,0.926,2.088c-0.435-4.346-0.041-8.722-0.22-13.073
	c-1.324-9.422-8.633-18.26-5.774-22.287c1.07-1.443,0.133-3.199,0.225-4.807c0.337-3.504,1.437-2.275,2.907-7.852
	c0.276,0.512,0.543,1.024,0.85,1.536c2.667-1.746,5.626-3.138,8.83-3.512c0.65-1.873-0.886-3.148-1.863-4.51
	c-0.026-1.29,0.921-2.273,1.699-3.194c-0.092-0.558-0.169-1.116-0.235-1.674c-1.584-1.794-2.526-1.935-0.962-5.016
	c-3.531-4.33-3.952-9.799-3.358-11.876c1.418-1.193,2.882-2.35,4.192-3.665c1.786-1.91,1.287-8.674,2.17-11.103
	c0.225-0.932,0.696-1.868,0.543-2.851c-0.415-0.747-0.967-1.403-1.362-2.15c-0.056-1.136,0.21-2.257,0.43-3.363
	c0.829-0.952,1.346-2.109,1.751-3.297c-0.978-0.312-2.503-0.215-2.749-1.5c-0.43-2.872,1.479-5.349,3.614-7.018
	c0.758,0.604,1.664,1.111,2.191,1.966c0.256,2.288-1.055,4.361-2.662,5.856c0.041,1.971,1.438,3.378,2.355,4.986
	c0.768,2.39-2.488,4.105-1.218,6.434c1.372,3.209-0.328,7.018,1.699,10.038c1.048,1.077,0.696,2.917,2.288-1.699
	c0.998,0.737,1.756,1.725,2.201,2.892c-0.747,0.363-1.495,0.722-2.216,1.08c3.974,3.982,4.759,9.215,0.543,14.45
	c0.148,1.157,0.42,2.329,0.256,3.501c-0.66,1.295-1.72,2.355-2.334,3.68c0.962,0.568,2.047,0.824,3.158,0.527
	c2.798,4.222-0.19,3.3-0.706,7.402c1.858,0.338,3.696,0.778,5.528,1.275c0.036-0.471,0.102-1.423,0.133-1.894
	c0.712,1.116,1.049,2.554,2.283,3.256c1.889,1.203,3.276,2.989,5.052,4.341c0.42,2.892-0.102,5.871,0.737,8.717
	c1.805,5.436-4.645,12.302-5.18,17.511c-0.128,1-0.344,14.547,0.742,16.815c0.363-0.64,0.747-1.29,1.131-1.93
	c0.205,0.809,0.399,1.638,0.732,2.421c1.459,1.177,3.189,1.976,4.735,3.046c0.077-0.481,0.23-1.449,0.307-1.93
	c0.773,0.537,0.686,1.52,0.875,2.35c0.113,1.193,0.932,2.135,1.51,3.138c0.41-0.195,0.824-0.394,1.259-0.589
	c0.22,2.437-0.015,5.016,1.106,7.269c3.226,6.938-2.57,11.728-7.392,20.516c-1.025,1.826,0.324,62.202,0.502,63.202
	c0.66-0.092,1.351-0.143,2.027-0.297c0.333-0.517,0.614-1.075,0.916-1.618c0.87-0.046,1.751-0.097,2.646-0.138
	c0.133,0.845,0.292,1.694,0.45,2.544c1.74,1.331,3.476,2.672,5.278,3.926c0.235-0.471,0.706-1.418,0.942-1.889
	c0.174,0.886,0.348,1.776,0.522,2.667c0.855,0.799,1.735,1.577,2.636,2.344c0.328,0.005,0.993,0.005,1.326,0.005
	c0.41,0.712,0.839,1.423,1.285,2.135c0.159-0.548,0.471-1.638,0.63-2.186c1.316,2.488,0.614,5.405,0.85,8.098
	c3.318,2.896-1.836,8.489-4.034,12.408c-0.978,1.536-1.735,3.691-3.87,3.788c-2.309,4.018-4.075,8.374-5.385,12.807
	c-0.018,18.6-0.08,17.427,1.449,19.119c-0.369,1.571-1.024,3.076-1.121,4.709c0.343,0.194,1.034,0.584,1.377,0.778
	c-0.097,1.162-0.532,2.237-1.249,3.153c-0.165,3.18,0.499,29.905,0.456,35.089c0.312,0.164,0.927,0.491,1.234,0.655
	c0.021,1.351-0.394,2.616-1.229,3.68c-0.061,1.935,0,3.87,0.108,5.8c0.235,0.205,0.706,0.609,0.942,0.809
	c0.046,0.625,0.113,1.254,0.189,1.889c-0.266,0.287-0.799,0.855-1.065,1.142c-0.031,0.727-0.056,1.464-0.067,2.206
	c0.466,0.302,0.942,0.609,1.433,0.921c-0.184,0.973-0.466,1.925-1.019,2.759c6.647,15.15,4.966,12.127,7.315,13.938
	c0.021,0.537,0.056,1.08,0.102,1.628c-0.507,0.138-1.003,0.287-1.484,0.44c-0.011,0.483,1.854,111.4,1.95,112.327
	c3.177-1.933,0.78-4.44,2.667-11.123c1.067,1.993,1.351,9.543,1.387,10.545c0.865,1.505,2.575,1.73,4.07,2.242
	c1.981,2.544,5.093,3.686,7.427,5.841c2.018-4.437,1.67-9.982,10.796-18.796c1.47-1.365,12.658-9.091,12.802-9.25
	c0.123-2.257,0.067-4.551,0.635-6.752c-0.097-1.961,0.281-3.901,0.906-5.748c1.666,6.54,0.56,8.58,2.104,13.319
	c1.51,1.884,4.371,1.111,6.214,2.559c1.971-4.602,4.315-9.132,7.878-12.72c0.154-5.124-0.614-25.288-0.399-27.938
	c5.574-0.328,11.082-1.408,16.672-1.515c-4.46-19.628,6.248-20.807,9.316-23.889c0.456-1.643,0.251-3.399,0.655-5.057
	c1.1,1.658,0.353,3.778,1.121,5.539c1.92,0.42,3.45,1.648,5.052,2.708c7.842,4.541,6.852,15.627,5.375,18.622
	c4.453,2.549,9.224,4.479,13.811,6.767c0.663,9.05-0.209,25.053,1.254,27.949c1.408-0.686,2.334-1.93,2.995-3.317
	c0.522,0.834,0.788,2.303,2.073,2.206c0.983-0.466,1.305-1.607,1.868-2.462c0.578,1.07,1.203,2.124,1.879,3.153
	c0.763-1.116,1.418-2.298,1.971-3.537c0.824,1.223,1.761,2.882,3.537,2.544c0.717-0.845,1.136-1.889,1.628-2.877
	c0.589,1.116,1.229,2.211,1.955,3.261c0.717-1.177,1.428-2.36,2.114-3.552c0.563,0.957,1.106,1.93,1.664,2.913
	c1.157-0.799,1.996-1.945,2.759-3.112c0.491,0.86,1.003,1.72,1.556,2.565c0.891-0.799,1.684-1.705,2.303-2.733
	c0.24,0.041,0.727,0.123,0.973,0.164c0.123-3.276,0.113-6.67,1.602-9.68c0.179,0.251,0.542,0.753,0.727,1.003
	c0.722-0.543,0.609-1.715,0.998-2.498c0.466-1.971,2.498-3.419,2.165-5.574c-0.897-9.759,7.207-12.401,9.106-13.995
	c0.896-1.464,0.558-3.317,0.901-4.934c1.351,1.71-0.097,4.73,2.227,5.697c1.356,0.947,2.969,1.423,4.376,2.303
	c6.629,5.049,5.014,11.289,5.114,13.258c0.568,0.568,1.49,0.21,2.232,0.338c-0.051-6.025,0.215-12.039,0-18.059
	c0.276-4.397-2.846-8.031-2.989-12.372c0.737-1.556,1.996-3.117,1.362-4.939c-8.52-24.465,0.63-64.539,41.552-79.748
	c2.987-1.11,6.078-1.074,9.135-1.953c0.527-0.671,0.916-1.438,1.351-2.176c-0.456-1.664-0.65-3.424,0.22-4.996
	c1.234-2.242-1.141-5.247,1.239-6.987c-0.261-1.331-0.666-2.662-0.62-4.029c0.384-1.249,1.249-2.278,1.945-3.368
	c-0.056-0.589-0.082-1.167-0.102-1.746c-5.187-2.781-0.737-7.044,1.664-5.979c1.653,0.676,1.92,2.907,1.044,4.295
	c-0.589,0.706-1.402,1.167-2.109,1.715c0.348,2.268,1.29,4.382,1.797,6.613c-0.251,0.717-0.594,1.392-0.891,2.078
	c1.438,4.428,1.401,2.059,0.573,7.996c1.531,1.418,1.495,3.465,0.742,5.283c1.478,2.032,4.287,1.748,6.453,2.362
	c30.175,8.551,50.49,36.348,47.442,69.244c4.957,6.326,3.354,11.209,3.307,15.889c-0.256,0.568-0.496,1.141-0.722,1.725
	c1.955-0.051,3.911-0.21,5.881-0.241c1.976,2.882,4.433,5.421,6.26,8.405c0.261,1.966,0.138,3.967,0.246,5.948
	c0.143,0.021,0.435,0.061,0.578,0.087c0.092-1.121,0.205-2.237,0.404-3.337c3.481,5.039-7.651,7.132,22.774,4.325
	c1.776,2.826,3.624,5.61,5.508,8.374c1.065,1.464,0.22,3.563,1.505,4.955c0.061-1.003,0.143-1.996,0.205-2.995
	c1.346-0.374,2.749-0.619,4.049-1.193c1.496-2.37-7.173-16.694,9.49-26.009c2.605-1.06,1.541-4.412,2.437-6.552
	c0.768,1.986,0.471,4.223,1.402,6.168c2.907,1.121,5.395,3.163,8.001,4.873c-0.23-9.029-0.439-11.336,5.579-18.074
	c1.669-1.858,4.1-2.703,5.969-4.325c0.645-0.282,1.674-0.215,1.863-1.101c0.563-2.104,0.497-4.331,1.008-6.455
	c-2.043-7.186,0.655-6.544,1.387-10.335c-15.366-62.346,24.401-105.007,67.471-111.748c-0.107-2.339-1.198-4.97,0.353-7.059
	c1.402-2.042-0.051-4.448-0.118-6.644c-0.21-1.382,1.085-2.293,1.428-3.527c0.051-1.761-1.331-3.394-0.722-5.165
	c0.655-2.196,1.505-4.33,2.119-6.542c-0.87-0.568-1.715-1.136-2.549-1.72c-0.036-1.884,0.363-3.721,0.85-5.528
	c3.652-3.686,11.136,3.001,2.78,7.166c0.348,2.508,1.408,4.822,2.201,7.212c0.507,1.52-0.594,2.989-0.512,4.53
	c-0.088,2.927,2.567,1.677,0.727,7.197c0.092,0.246,0.271,0.747,0.363,0.993c-0.826,3.291,2.623,2.486,0.814,8.461
	c2.053,1.31,4.663,0.952,6.941,1.699c53.324,8.914,80.681,62.958,68.003,108.063c-1.063,4.122,2.419,2.527,2.047,9.736
	c-0.282,2.344-2.344,3.931-2.908,6.168c-0.578,2.15-0.43,4.458-1.397,6.511c2.201,0.067,3.665-1.858,5.416-2.923
	c0.686-2.104,0.005-4.643,1.587-6.445c0.343,2.201,0.461,4.433,0.722,6.649c1.92,1.029,4.371,0.599,6.02,2.206
	c11.024,6.677,9.162,15.304,10.299,18.008c1.495-1.019,3.179-1.725,4.694-2.718c0.921-1.873,0.113-4.249,1.351-6.056
	c0.435,1.884,0.348,3.865,0.906,5.728c3.696,2.913,8.369,5.037,10.401,9.587c2.565,4.254,1.5,9.285,1.822,13.959
	c-0.236,0.174-0.701,0.532-0.932,0.706c0.026,0.727,0.077,1.459,0.148,2.196c1.879,0.543,4.044,0.839,5.078,2.749
	c0.476-0.2,0.973-0.399,1.49-0.589c0.614,0.865,1.177,1.776,1.705,2.723c0.752-0.41,1.51-0.87,2.032-1.592
	c0.722-0.292,1.433-0.747,2.268-0.722c0.886,0.363,1.07,1.387,1.469,2.175c0.666-0.604,1.351-1.193,2.063-1.766
	c1.044,0.041,2.114,0.087,3.194,0.138c0.22,0.374,0.671,1.131,0.896,1.51c0.778-1.505-0.01-3.465,1.254-4.75
	c13.78-15.885,9.401-5.53,11.19-13.851c1.825,1.248-1.036,7.387,8.313,5.129c0.01-2.672,0.015-5.344,0.061-8.011
	c2.943-2.001,5.047-4.945,7.509-7.473c-0.092-1.786-0.195-3.685,0.896-5.216c0,0-9.413-40.668,15.188-65.837
	c6.278-6.423,25.192-18.007,32.745-18.204c0.42-0.64,0.855-1.275,1.316-1.904c-0.389-1.316-0.399-2.682-0.241-4.029
	c0.256-0.287,0.773-0.865,1.029-1.152c-0.471-2.554-0.916-5.196,0.338-7.612c-1.213-2.769,0.118-5.533,0.952-8.17
	c-0.466-0.819-1.1-1.536-1.633-2.283c1.141,0.261,2.759,1.034,3.368-0.502c0.814-1.689-1.316-2.385-2.35-3.117
	c3.026-1.164,7.246,2.335,1.684,5.702c0.43,1.986,1.019,3.936,1.771,5.835c-0.256,0.875-0.491,1.751-0.717,2.631
	c0.394,1.157,0.957,2.268,1.321,3.455c-0.138,1.218-0.625,2.38-0.594,3.624c0.266,1.033,0.889,1.948,1.161,2.996
	c1.677,6.468-1.906,2.639,16.038,9.125c17.6,6.361,35.895,21.891,39.01,41.4c5.028,18.53-0.419,34.921-0.599,36.036
	c1.167,1.428,2.329,3.174,1.976,5.124c-1.885,7.45-3.938,1.956-2.334,27.14c0.517,0.947,1.71,1.162,2.626,1.633
	c-1.47-7.466,2.302-12.453,8.666-16.703c1.653-0.932,0.86-3.184,1.321-4.72c1.131,1.167,0.752,2.954,1.474,4.3
	c3.821,3.502,5.268,1.76,8.252,7.607c2.111,4.088,0.906,8.435,1.546,12.976c1.269,0.701,2.559,1.413,3.778,2.242
	c-0.148,2.375-0.097,4.755-0.077,7.136c0.338,0.061,1.008,0.179,1.346,0.235c0.486,0.712,0.973,1.418,1.5,2.135
	c0.758-0.722,1.49-1.515,2.406-2.078c0.65,0.671,0.942,1.838,1.981,2.042c0.41-0.624,0.763-1.29,1.136-1.94
	c-0.522-2.529-0.404-5.308,0.742-7.647c0.194-0.031,0.578-0.087,0.768-0.113c1.561,2.754,1.136,6.081,1.505,9.117
	c0.527-0.302,1.08-0.599,1.653-0.886c0.619,0.834,1.259,1.669,1.955,2.472c0.568-0.809,1.167-1.612,1.771-2.411
	c0.389,0.609,0.793,1.229,1.213,1.863c0.66,0.225,1.346,0.461,2.053,0.701c0.563-0.717,1.136-1.433,1.74-2.14
	c0.676,1.29,1.592,2.472,3.051,2.943c0.384-0.778,0.768-1.551,1.198-2.314c0.747,0.993,1.51,2.022,2.616,2.677
	c0.123-0.415,0.363-1.254,0.486-1.669c0.358-0.21,0.737-0.415,1.136-0.614c0.537,0.768,0.891,1.771,1.766,2.273
	c1.397-0.686,2.349-2.186,2.273-3.762c0-27.507-3.653-20.895,13.314-28.737c-0.549-5.271-3.053-14.59,5.871-19.907
	c3.26-3.21,3.123,0.341,4.402-6.813c1.597,1.049,0.624,3.363,1.766,4.699c10.327,5.393,8.527,6.652,10.995,11.22
	c0.15,14.465-5.234,12.015,15.464,13.201c0.355,38.416-0.532,32.854,3.706,46.346c2.094-1.275,3.819-3.076,5.979-4.274
	c2.124-1.024,3.143-3.931,5.892-3.501c3.985-2.79,0.736-9.411,3.169-13.15c2.575,2.513,1.039,6.562,2.052,9.715
	c-0.374,2.273,1.915,3.619,3.911,3.614c1.157-0.031,1.469,1.234,2.006,2.027c14.548,8.524,14.737,15.178,17.317,19.329
	c1.29-0.932,2.488-1.986,3.634-3.102c0.44,0.133,0.896,0.276,1.377,0.43c3.497-3.324,0.761-9.643,2.82-11.522
	c3.312,2.51-1.545,10.063,5.871,11.64c0.594,0.624,0.988,2.447,2.089,1.387c0.147-2.978-1.249-110.316-1.28-111.318
	c-3.509-4.043-0.768,1.39,5.221-16.037c0.061-1.515-0.348-3.066,0.43-4.484c0.758-1.582-1.31-3.025-0.507-4.597
	c0.814-1.95,0.921-4.1,0.66-6.173c-0.287-1.362-1.761-2.708-0.701-4.069c1.528-2.418,0.031-14.093,0.292-25.676
	c-0.22-3.783,0.84-7.955-1.505-11.277c0.415-0.891,0.85-1.776,1.3-2.662c-2.611-6.774,4.71-21.19-6.859-35.294
	c-0.374,0.02-1.116,0.072-1.49,0.097c-2.257-2.959-4.008-6.24-5.969-9.383c-0.885-1.264-1.157-2.877-0.696-4.351
	c0.773-2.682,0.041-5.554,0.962-8.221c0.328-0.051,0.988-0.154,1.315-0.205c0.568-1.019,1.449-1.449,2.549-0.829
	c0.87-0.619,1.745-1.249,2.641-1.873c0.194-0.645,0.42-1.285,0.671-1.92c4.069,1.369,7.108-5.409,8.676-5.917
	c0.558,0.143,1.213,0.706,1.827,0.256c0.24-2.926-0.702-54.462-0.911-58.139c-1.188-2.81-2.667-5.503-4.412-7.996
	c-1.531-1.73-3.491-3.389-3.767-5.825c-0.44-2.462-1.31-5.129-0.092-7.509c0.973-1.981,0.384-4.228,0.814-6.311
	c1.71-1.147,3.235-2.611,3.568-4.76c2.442-0.164,5.032-1.188,5.933-3.675c0.42-0.246,0.86-0.486,1.331-0.727
	c0.099-17.303-0.619-14.652-2.298-18.929c-3.896-9.069-5.12-6.956-3.527-13.898c0.798-2.529-0.051-5.252,0.855-7.76
	c2.303-1.827,4.883-3.496,6.516-6.004c0.425,0.23,0.87,0.461,1.346,0.691c1.198-0.292,2.431-0.573,3.65-0.911
	c-0.041-1.648-0.978-3.01-1.623-4.453c-0.43-1.705,1.479-2.877,1.546-4.52c-0.553-0.957-1.351-1.751-1.792-2.759
	c-0.092-1.07,0.164-2.129,0.333-3.179c-3.742-3.189-4.31-9.46-1.131-13.232c-0.287-1.003-0.589-1.991-0.927-2.964
	c0.235-0.553,0.491-1.101,0.773-1.643c0.911,0.839,1.705,1.802,2.478,2.785c1.684-2.073,1.188-4.791,1.193-7.258
	c-0.123-2.201,0.717-4.31,0.589-6.511c-0.548-0.742-1.07-1.5-1.572-2.252c0.143-1.955,1.459-3.414,2.391-5.037
	c0.133-1.372-1.449-2.068-1.74-3.332c1.065-0.005,2.365,0.793,3.358,0.015c0.575-2.919-0.433-2.897-3.005-4.315
	c1.142-0.026,2.309-0.031,3.491-0.031c0.604,0.839,1.305,1.638,1.817,2.565c0.215,0.896-0.138,1.822-0.205,2.723
	c-0.932,0.619-1.843,1.259-2.733,1.894c0.445,1.397,1.341,2.554,2.175,3.747c0.205,0.896,0.067,1.838,0.097,2.754
	c-0.952,1.188-1.618,2.749-0.896,4.228c0.983,2.39,0.45,4.991,0.722,7.484c0.292,2.508,2.759,3.721,4.208,5.518
	c3.271,3.455,2.523,9.275-0.625,12.562c0.235,1.157,0.491,2.319,0.711,3.486c-0.799,0.676-1.577,1.336-2.309,2.048
	c-1.234,0.835,2.32,2.597,2.17,4.72c-0.717,1.566-2.17,3.056-1.316,4.878c1.001,0.427,8.717,3.048,10.785,3.03
	c0.189,2.539,2.769,4.213,2.431,6.875c-0.307,2.687,0.978,5.119,1.433,7.688c-1.29,5.155-3.343,10.12-5.426,15.003
	c-0.645,5.078-0.583,10.202-0.307,15.3c0.502-0.159,1.039-0.317,1.592-0.471c0.87,2.129,2.58,3.998,5.001,4.228
	c0.282-0.322,0.855-0.978,1.136-1.3c0.599,1.285,0.85,2.692,1.336,4.023c0.614,0.522,1.367,0.845,2.119,1.208
	c0.696,2.201-0.051,4.714,1.244,6.731c4.598,8.156-1.988,9.659-6.434,20.951c-0.189,0.225-0.568,0.671-0.763,0.891
	c0.494,6.717,0.844,54.8,1.336,60.765c0.568,0.005,1.157,0.005,1.771,0.015c0.282-0.63,0.584-1.249,0.921-1.863
	c0.425,0.819,0.676,1.705,0.906,2.605c7.353,2.075,4.333,1.283,7.182,0.067c1.55,0.66,0.322,0.487,3.102,1.31
	c0.42,1.694,0.184,3.757,1.561,5.057c1.51,1.3,0.763,3.614,2.058,5.047c1.536,1.735,0.932,4.233,0.86,6.347
	c1.024,1.633,1.551,3.665,0.901,5.544c-6.971,6.037-7.725,6.455-13.938,21.704c0.24,5.385-0.118,10.811,0.532,16.181
	c0.522,1.577,1.433,3.46-0.046,4.837c0.952,5.25-0.587,36.062,2.14,42.23c-2.835,1.983,0.471,8.047-0.005,9.705
	c-0.328,0.44-0.655,0.865-0.983,1.28c0.246,1.914,1.602,3.522,1.321,5.533c1.817,2.237,3.133,4.853,5.088,6.987
	c0.809,0.901,2.339,1.095,2.836,2.278c-0.062,1.249-1.28,2.186-1.218,3.491c-0.016,1.009,1.165,103.035,1.874,110.1
	c6.977,6.956,9.142,17.609,7.52,27.109c0.389,0.323,0.804,0.65,1.239,0.983c-0.087,0.409-0.256,1.228-0.338,1.638
	c0.543,0.727,1.1,1.454,1.674,2.196c0.491-0.988,1.008-1.961,1.592-2.907c0.466,0.778,0.932,1.577,1.402,2.391
	c0.717-0.957,1.444-1.914,2.206-2.851c0.384,0.967,0.788,1.945,1.208,2.923c0.676-1.06,1.336-2.124,2.032-3.179
	c0.568,0.875,1.141,1.766,1.745,2.646c0.635-1.792,0.86-3.691,0.927-5.58c-1.638-1.525-3.24-3.276-3.583-5.569
	c1.255-5.395-4.315-27.909,18.469-39.988c0.077-0.317,0.24-0.947,0.322-1.259c1.827-0.804,4.075-0.927,5.446-2.554
	c0.639-10.159,0.082-10.055,1.587-12.116c0.54,1.239,1.632,10.957,1.72,11.957c1.07,1.295,2.662,1.648,4.259,1.904
	c0.865,0.041,1.07,0.983,1.515,1.587c27.811,16.017,16.954,33.2,20.803,38.509c-0.722,1.515-1.136,3.143-1.162,4.827
	c1.689-0.2,1.71-2.145,2.385-3.348c0.921,0.926,1.203,3.527,2.974,2.769c0.159-1.228,0.594-2.39,1.295-3.414
	c0.793,0.86,0.973,2.841,2.37,2.769c0.64-1.034,1.121-2.16,1.827-3.158c1.218,0.297,1.321,2.17,2.007,3.138
	c0.773-1.372,1.377-2.841,2.063-4.269c0.783,1.034,0.927,2.575,1.966,3.389c1.484-0.804,1.74-2.713,2.595-4.049
	c0.957,0.875,0.911,3.21,2.518,3.041c0.42-1.776,0.491-3.66,0.195-5.457c-0.583-1.45-5.711-5.185-2.872-8.948
	c-4.511-29.571,17.226-43.246,23.685-44.646c0.404-0.456,0.819-0.911,1.285-1.356c-0.005-3.128,0.389-6.235,0.455-9.357
	c0.123-1.315-0.087-3.307,1.746-3.348c1.305,3.726,0.768,7.755,1.602,11.584c-0.082,1.392,1.111,2.201,2.009,3.072
	c9.513,0.947,26.289,12.152,27.601,35.326c0.148,2.613-0.395,6.452,1.042,8.797c0.021,1.408-1.019,2.882-0.072,4.197
	c0.312,0.573,0.957,1.879,1.766,1.147c0.491-1.182,0.788-2.513,1.863-3.348c0.701,1.188,1.423,2.365,2.242,3.501
	c0.998-1.397,1.341-3.256,2.861-4.264c0.092,0.369,0.277,1.101,0.374,1.469c0.502,0.614,0.988,1.239,1.571,1.827
	c1.27-0.855,1.51-2.657,2.391-3.885c0.962,1.024,1.269,3.107,2.938,3.128c1.141-0.845,0.824-3.225,2.431-3.322
	c0.916,1.024,1.495,2.298,2.221,3.481c1.146-1.362,1.735-3.061,2.58-4.607c0.901,1.193,1.643,2.513,2.549,3.727
	c1.198-1.111,1.315-2.923,2.099-4.315c1.448,1.065,2.088,2.826,3.312,4.121c2.135-1.623,1.418-4.448,1.479-6.752
	c-6.83-6.196-3.244-8.075-3.44-10.048c-4.226-42.451,28.622-47.646,30.667-50.303c0.522-2.263,0.895-8.149,0.527-10.683
	c0.313-1.357,0.64-2.718,1.182-4.008c2.511,0.801,1.335,7.59,2.789,12.436c1.408,4.696,4.958,4.204,8.96,6.914
	c21.373,14.477,22.907,19.472,22.849,44.542c0.563,1.592,0.819,3.25,0.24,4.894c1.31,0.845,1.904,2.263,2.38,3.701
	c0.108,0.752,1.469,1.055,1.715,0.2c0.671-1.459,1.275-2.964,2.16-4.32c1.055,1.536,1.433,3.639,3.235,4.556
	c0.722-1.797,1.464-3.609,2.641-5.175c0.717,1.602,1.53,3.174,2.687,4.525c1.546-1.295,1.52-3.593,3.051-4.888
	c1.09,1.336,1.607,3.056,2.805,4.346c0.358-0.394,0.747-0.778,1.157-1.162c0.41-1.428,0.993-2.8,1.694-4.11
	c0.968,1.367,1.674,2.902,2.565,4.336c1.528,0.461,1.565-1.702,3.435-4.965c0.829,1.336,1.464,2.831,2.488,4.064
	c0.394,0.077,0.793,0.015,1.198-0.189c0.691-1.561,1.147-3.23,2.088-4.679c1.29,1.377,2.027,3.138,2.99,4.75
	c1.638-1.346,1.654-3.701,3.107-5.15c1.833,0.824,1.362,3.854,3.624,4.172c0.184-2.257,0.062-4.515-0.143-6.757
	c-2.145-1.991-4.141-4.32-4.689-7.279c-0.394-1.203,0.599-2.124,1.162-3.066c-8.532-38.637,29.535-53.904,30.109-54.904
	c0.708-4.263,0.742-11.169,0.548-12.172c0.491-1.295,0.456-3.005,1.572-3.931c1.449,1.709,2.447,14.449,2.447,15.449
	c4.11,5.596,36.184,8.927,34.347,54.07c0.993,1.131,1.802,2.534,1.177,4.09c-0.164,2.682-2.805,4.131-3.45,6.583
	c0.394,0.809,1.449,0.42,2.206,0.614c0.476-1.802,1.213-3.527,2.283-5.057c1.387,1.464,2.559,3.117,3.568,4.878
	c1.986-1.397,2.048-4.018,3.517-5.805c1.285,1.74,2.089,3.819,3.66,5.37c1.449-1.74,1.776-4.115,3.276-5.825
	c1.489,1.459,2.39,3.378,3.803,4.914c1.392-1.443,2.042-3.363,2.626-5.242c0.384-0.118,0.788-0.23,1.223-0.343
	c0.932,1.367,1.771,2.795,2.529,4.274c0.522-0.01,1.075-0.01,1.659-0.01c0.63-1.858,1.346-3.691,2.227-5.446
	c1.792,1.275,2.529,3.409,3.711,5.185c2.37-1.054,2.293-3.931,3.547-5.887c1.797,1.049,2.329,3.199,3.721,4.643
	c1.695,1.003,2.039-2.702,3.998-5.411c1.449,1.582,2.303,3.639,3.967,5.052c0.43-0.389,0.891-0.773,1.382-1.147
	c0.404-1.73,1.152-3.358,2.17-4.817c1.188,1.372,2.017,3.01,3.097,4.479c0.276,0.752,1.254,0.752,1.699,0.087
	c1.208-1.659,1.413-3.854,2.81-5.421c0.809,1.039,1.643,2.078,2.595,3.025c0.005-1.418-0.041-2.826-0.077-4.233
	c-1.295-1.264-2.729-2.375-3.972-3.66c-0.773-1.597-1.244-3.343-2.268-4.801c0.425-1.152,1.101-2.206,1.474-3.383
	c-0.395-3.615-5.241-19.339,4.704-37.111c4.53-7.949,11.481-14.271,19.247-19.001c1.028-4.129,7.551-3.34,8.195-5.866
	c-0.281-2.426,0.568-4.807,0.067-7.217c0.461-3.767-0.752-7.842,1.357-11.302c1.3,2.529,1.664,5.354,1.95,8.139
	c1.18,2.224,0.565,9.598,3.071,11.005c2.017,1.234,4.556,0.952,6.685,1.981c1.75,3.256,37.502,12.525,34.869,56.066
	c5.327,2.906-2.106,10.492-2.626,11.492c-0.107,1.346,1.346,1.92,2.165,2.739c2.135-1.653,1.955-4.638,3.711-6.583
	c1.925,1.397,2.672,3.86,4.576,5.293c1.733,0.469,2.051-2.069,4.039-5.912c1.781,0.44,2.539,2.237,3.25,3.752
	c0.778,0.537,1.561,1.075,2.39,1.623c1.822-1.659,2.114-4.172,2.995-6.347c2.539,0.435,3.317,3.276,4.653,5.124
	c3.358-0.225,2.764-4.591,5.011-6.311c1.756,1.362,2.729,3.414,4.254,4.996c1.003,1.019,1.904-0.584,2.738-1.106
	c0.399-1.771,0.962-3.552,2.201-4.94c1.909,1.786,2.958,4.361,5.196,5.83c1.725-1.694,2.227-4.11,3.384-6.148
	c2.056-1.146,3.015,4.122,5.83,4.894c2.508-1.408,2.242-4.873,4.494-6.552c1.485,1.771,2.483,3.967,4.233,5.508
	c2.066,1.73,3.15-4.789,5.16-6.542c1.889,1.797,2.759,4.505,5.145,5.825c2.436-1.459,2.61-4.53,4.064-6.741
	c2.309,1.479,3.184,4.366,5.646,5.702c2.104-1.285,2.498-3.819,3.547-5.866c0.972-1.454-1.095-2.319-1.807-3.348
	c-2.324-0.476-2.928-2.969-3.998-4.72c-1.084-2.402-2.086-2.333,0.297-5.4c-1.118-9.051-10.689-26.473,12.976-55.001
	c0.302-0.046,0.901-0.138,1.203-0.184c0,528.411,3.893,483.214-8.079,483.214c-26.78,0-2550.823,0.682-2551.317-1.066
	c0,0,0-501.708,0-501.789c2.477,0.128,4.95,0.619,7.438,0.409c0.962-0.123,1.914,0.046,2.836,0.322
	c1.812-0.747,3.588-1.735,5.595-1.802c0.184-0.138,0.548-0.42,0.732-0.563c0.645,0,1.295,0,1.94,0.01
	c0.592-9.606,10.861-109.827,9.644-110.899c-2.733-3.245-7.243-3.808-10.545-6.25c-0.107-1.07,0.067-2.14,0.133-3.199
	c-0.302-0.174-0.916-0.522-1.223-0.696c0,0,2.692-20.32,2.692-20.322c0.45-0.471,0.901-0.952,1.356-1.413
	c0.619,1.08,0.86,2.293,0.87,3.532c1.696-0.241,10.356-3.084,10.304-4.837c1.083-10.764,3.285-36.621,3.368-37.628
	c1.333-13.09-2.455-13.924-0.804-19.175c0.911,0.097,1.822,0.21,2.733,0.338c5.508-8.813,1.659-5.915,2.585-11.118
	c-0.118-1.669,2.81-1.955,1.966-3.716c-0.829-2.831-1.111-5.759-0.957-8.697c1.336-0.123,2.856-0.793,2.723-2.385
	c1.239-5.144-1.929-10.032-1.014-15.182c0.001-0.006,2.17-1.581,2.432-2.044c1.47-2.602,0.908-7.821,1.138-10.656
	c3.155-38.942,4.684-40.902,3.336-48.71c-0.601-3.479-1.245-6.312,1.136-9.327c-0.307-2.595-1.121-5.18-0.809-7.816
	c0.169-1.653,2.677-1.766,2.708-3.527c0.272-1.652,1.773-15.203,1.833-20.347c-7.739-15.5-4.722-12.548-15.725-21.197
	c-3.352-2.37-2.424-19.027-6.102-23.807C56.72,46.271,56.94,44.167,57.134,42.058 M320.081,561.247
	c-0.174,1.397-0.906,2.621-1.336,3.941c0.021,0.635,0.609,1.055,0.906,1.592c0.077,0.962,0.445,1.833,1.116,2.549
	c0.589-0.752,0.865-1.643,0.88-2.585c0.266-0.184,0.793-0.548,1.06-0.727c-0.435-1.715-1.198-3.312-1.786-4.965
	C320.711,561.099,320.291,561.201,320.081,561.247 M430.069,562.839c-0.184,1.326-0.886,2.513-1.07,3.834
	c0.384,0.394,0.783,0.778,1.203,1.157c-0.082,0.225-0.241,0.665-0.323,0.886c0.41,0.594,0.829,1.193,1.275,1.776
	c0.235-1.331,0.435-2.733,1.454-3.716c-0.635-1.438-1.249-2.892-1.623-4.412C430.755,562.481,430.294,562.721,430.069,562.839
	 M475.734,565.26c-0.543,1.607-1.147,3.204-1.52,4.863c0.241,0.179,0.717,0.537,0.952,0.717c0.22,0.896,0.123,2.104,1.116,2.59
	c0.312-1.126,0.317-2.421,1.367-3.158C477.003,568.603,476.686,566.786,475.734,565.26 M483.57,570.435
	c1.203,0.793,0.947,2.483,1.991,3.435c0.164-0.809,0.297-1.617,0.43-2.421c0.241-0.2,0.722-0.604,0.962-0.804
	c-0.604-1.648-1.152-3.322-1.899-4.904C484.528,567.292,483.893,568.818,483.57,570.435 M566.848,572.749
	c0.343,0.901,0.778,1.771,1.188,2.657c0.297-0.102,0.891-0.297,1.188-0.399c-0.384-1.792-1.044-3.506-1.52-5.267
	C567.375,570.717,566.853,571.694,566.848,572.749 M583.423,571.188c-0.28,1.168-2.239,3.866,0.491,7.335
	c0.128-0.701,0.251-1.403,0.363-2.099c0.236-0.251,0.717-0.753,0.957-1.003C584.687,573.983,584.124,572.549,583.423,571.188
	 M589.703,575.534c0.312,0.358,0.635,0.727,0.962,1.101c0.241,0.742-0.015,1.894,0.973,2.175c0.036-0.65,0.072-1.295,0.113-1.93
	c0.246-0.235,0.737-0.706,0.983-0.942c-0.543-1.418-1.044-2.846-1.551-4.264C590.533,572.897,590.092,574.208,589.703,575.534z"/>
</svg>
